<?xml version="1.0" ?><svg id="Layer_1" style="enable-background:new 0 0 512 512;" version="1.1" viewBox="0 0 512 512" xml:space="preserve" xmlns="http://www.w3.org/2000/svg" xmlns:xlink="http://www.w3.org/1999/xlink"><style type="text/css">
	.st0{fill:#FF994E;}
	.st1{fill:#FFCE6C;}
	.st2{fill:#EA5E5E;}
	.st3{fill:#499CE8;}
	.st4{fill:#77D372;}
</style><g><g><path class="st0" d="M214.6,285.3c-1.2,0-2.4-0.3-3.4-0.9l-82.8-48.8c-3.2-1.9-4.3-6-2.4-9.2c1.9-3.2,6-4.3,9.2-2.4l77.8,45.9    l79.2-97.5c0.3-0.4,0.6-0.7,1-1l82.8-67.6c2.9-2.4,7.1-1.9,9.5,1c2.4,2.9,1.9,7.1-1,9.5l-82.3,67.2l-82.4,101.5    C218.5,284.5,216.6,285.3,214.6,285.3z"/></g><path class="st1" d="M152.6,300.1h-41.7c-6.7,0-12.1,5.4-12.1,12.1v104.9h65.8V312.2C164.7,305.5,159.3,300.1,152.6,300.1z"/><path class="st2" d="M235.4,349h-41.7c-6.7,0-12.1,5.4-12.1,12.1v56h65.8v-56C247.5,354.4,242.1,349,235.4,349z"/><path class="st3" d="M318.3,246.9h-41.7c-6.7,0-12.1,5.4-12.1,12.1v158.1h65.8V259C330.3,252.3,324.9,246.9,318.3,246.9z"/><path class="st4" d="M401.1,179.3h-41.7c-6.7,0-12.1,5.4-12.1,12.1v225.7h65.8V191.4C413.2,184.7,407.8,179.3,401.1,179.3z"/><path class="st0" d="M415.7,425.5H96.3c-4.7,0-8.4-3.8-8.4-8.4v0c0-4.7,3.8-8.4,8.4-8.4h319.3c4.7,0,8.4,3.8,8.4,8.4v0   C424.1,421.7,420.3,425.5,415.7,425.5z"/><circle class="st1" cx="131.7" cy="229.7" r="22.4"/><circle class="st2" cx="214.6" cy="278.6" r="22.4"/><circle class="st3" cx="297.4" cy="176.6" r="22.4"/><circle class="st4" cx="380.3" cy="109" r="22.4"/></g></svg>